<!DOCTYPE svg PUBLIC "-//W3C//DTD SVG 20010904//EN" "http://www.w3.org/TR/2001/REC-SVG-20010904/DTD/svg10.dtd">
<svg version="1.0" xmlns="http://www.w3.org/2000/svg" width="313px" height="387px" viewBox="0 0 3130 3870" preserveAspectRatio="xMidYMid meet">
<g id="layer1" fill="#ffffff" stroke="none">
 <path d="M2 3648 c1 -123 3 -203 5 -178 3 25 11 49 19 53 8 4 14 14 14 22 0 19 94 99 144 123 149 72 274 107 471 132 160 21 252 30 355 36 58 3 114 10 125 15 11 5 85 10 165 12 80 1 -180 4 -577 5 l-723 2 2 -222z"/>
 <path d="M1720 3863 c63 -2 124 -7 135 -12 11 -5 56 -12 100 -16 90 -7 186 -18 290 -34 189 -28 235 -38 335 -66 30 -9 71 -21 90 -27 19 -5 47 -12 63 -15 15 -3 30 -9 33 -14 3 -5 14 -9 25 -9 10 0 27 -4 37 -9 9 -5 31 -14 47 -21 50 -21 109 -52 126 -66 8 -8 20 -14 24 -14 5 0 29 -19 52 -42 l43 -42 0 -180 c0 -171 -1 -182 -25 -232 -49 -103 -104 -171 -215 -265 -53 -45 -88 -67 -175 -113 -22 -12 -51 -29 -65 -38 -14 -9 -45 -24 -70 -33 -57 -21 -90 -35 -112 -46 -10 -5 -27 -9 -37 -9 -11 0 -22 -4 -25 -8 -3 -5 -49 -21 -103 -36 -54 -15 -112 -31 -129 -37 -17 -5 -42 -9 -57 -9 -14 0 -29 -4 -32 -10 -3 -5 -14 -10 -24 -10 -24 0 -86 -68 -100 -109 -18 -56 13 -140 100 -267 33 -47 51 -81 70 -131 5 -13 13 -33 19 -45 5 -13 14 -42 21 -65 7 -26 28 -58 55 -84 24 -24 44 -48 44 -55 0 -6 9 -19 19 -28 77 -70 117 -308 71 -428 -15 -40 -18 -60 -10 -83 14 -47 30 -203 30 -296 0 -151 -30 -323 -72 -419 -11 -25 -26 -58 -34 -75 -18 -43 -102 -131 -149 -156 -32 -18 -59 -23 -139 -25 l-99 -3 -41 -38 c-38 -36 -57 -49 -106 -73 -11 -5 -29 -14 -40 -20 -11 -5 -25 -10 -31 -10 -6 0 -25 -6 -42 -14 -18 -8 -41 -17 -52 -19 -11 -3 337 -5 773 -6 l792 -1 0 1935 0 1935 -762 -2 c-420 -1 -711 -4 -648 -5z"/>
 <path d="M2 1693 l-2 -1693 683 1 c375 1 671 4 657 6 -14 3 -29 8 -35 12 -5 4 -32 16 -60 25 -82 29 -117 47 -173 88 -52 39 -142 143 -142 164 0 6 -7 17 -15 24 -9 7 -23 29 -31 49 -9 20 -27 59 -39 86 -91 199 -107 461 -45 704 9 38 8 46 -7 63 -15 17 -18 38 -18 132 0 198 44 301 173 408 21 17 32 35 32 52 0 13 4 28 10 31 5 3 10 15 10 26 0 10 4 27 9 37 5 9 14 29 20 45 25 63 38 86 86 157 71 104 78 123 65 173 -6 23 -18 56 -26 74 -20 44 -101 113 -132 113 -14 0 -39 4 -56 9 -17 6 -75 22 -129 37 -54 15 -100 31 -103 36 -3 4 -14 8 -25 8 -19 0 -28 4 -76 28 -13 7 -29 12 -37 12 -14 0 -158 73 -186 94 -8 7 -28 18 -45 26 -108 52 -285 225 -314 307 -7 21 -20 45 -27 53 -10 12 -14 57 -17 160 -1 80 -4 -617 -5 -1547z"/>
 </g>
<g id="layer2" fill="#cccccc" stroke="none">
 <path d="M1190 3859 c-399 -14 -619 -39 -802 -92 -140 -41 -251 -95 -308 -150 -77 -73 -75 -64 -72 -314 3 -242 8 -274 61 -342 14 -18 35 -46 46 -61 30 -41 211 -190 231 -190 3 0 18 -8 32 -18 42 -30 204 -112 219 -112 7 0 22 -4 33 -10 11 -5 29 -14 40 -20 11 -5 29 -10 39 -10 11 0 22 -4 25 -8 3 -5 49 -21 103 -36 54 -15 112 -31 129 -37 17 -5 37 -9 46 -9 56 0 126 -78 147 -163 13 -54 14 -51 -61 -165 -45 -70 -61 -101 -90 -172 -6 -14 -14 -33 -19 -42 -5 -10 -9 -27 -9 -37 0 -11 -4 -23 -10 -26 -5 -3 -10 -17 -10 -30 0 -15 -12 -32 -31 -47 -58 -44 -91 -83 -119 -143 -43 -92 -55 -150 -55 -271 0 -94 3 -115 18 -132 15 -17 16 -25 7 -63 -54 -211 -50 -410 12 -619 14 -49 49 -126 116 -254 8 -16 52 -66 97 -112 96 -97 170 -137 303 -163 100 -20 306 -10 377 19 74 30 104 48 146 87 l48 44 98 3 c85 2 105 6 148 30 66 36 175 160 175 198 0 8 9 32 19 54 40 84 71 262 71 413 0 93 -16 249 -30 296 -8 23 -5 43 10 83 34 88 24 244 -21 347 -19 42 -80 133 -123 180 -20 22 -41 56 -47 75 -6 19 -14 44 -18 55 -24 60 -29 73 -42 100 -8 17 -21 41 -30 55 -115 178 -137 231 -118 289 14 43 56 91 80 91 10 0 21 5 24 10 3 6 18 10 32 10 15 0 40 4 57 9 17 6 75 22 129 37 54 15 100 31 103 36 3 4 16 8 29 8 13 0 27 5 30 10 3 6 15 10 26 10 10 0 27 4 37 10 9 5 42 21 72 35 218 100 376 221 473 363 51 73 56 100 57 323 0 200 -1 207 -22 230 -50 53 -209 149 -248 149 -10 0 -22 5 -25 10 -3 6 -17 10 -30 10 -13 0 -26 4 -29 9 -3 5 -18 11 -33 14 -16 3 -44 10 -63 15 -19 6 -60 18 -90 27 -123 35 -279 63 -485 84 -104 12 -532 32 -614 29 -31 0 -162 -5 -291 -9z"/>
 </g>

</svg>