<!DOCTYPE svg PUBLIC "-//W3C//DTD SVG 20010904//EN" "http://www.w3.org/TR/2001/REC-SVG-20010904/DTD/svg10.dtd">
<svg version="1.0" xmlns="http://www.w3.org/2000/svg" width="396px" height="555px" viewBox="0 0 3960 5550" preserveAspectRatio="xMidYMid meet">
<g id="layer1" fill="#cccccc" stroke="none">
 <path d="M2595 5530 c-292 -19 -627 -157 -924 -381 -406 -307 -792 -814 -1120 -1469 -246 -494 -389 -879 -480 -1295 -70 -326 -78 -820 -17 -1085 118 -512 431 -908 886 -1123 63 -30 160 -76 214 -101 112 -54 191 -71 285 -61 82 8 123 30 192 101 96 102 159 230 249 509 116 360 147 545 117 696 -38 192 -124 289 -363 408 -82 40 -185 87 -229 103 -104 38 -153 67 -199 119 -188 207 -114 632 230 1311 228 451 449 716 660 788 109 38 217 20 349 -59 131 -78 369 -190 440 -207 88 -20 189 -14 268 16 168 64 321 222 556 575 126 189 161 248 202 346 28 67 31 85 32 189 1 100 -2 120 -21 156 -42 82 -124 141 -354 256 -221 110 -377 169 -507 193 -99 17 -315 24 -466 15z"/>
 </g>
<g id="layer2" fill="#ffffff" stroke="none">
 <path d="M0 2775 l0 -2775 1980 0 1980 0 0 2775 0 2775 -1980 0 -1980 0 0 -2775z m3010 2728 c58 -9 159 -33 224 -55 156 -51 528 -236 598 -297 51 -45 98 -125 98 -168 0 -12 5 -25 10 -28 6 -3 10 -17 10 -30 0 -13 -4 -27 -10 -30 -5 -3 -10 -19 -10 -35 0 -79 -78 -241 -221 -457 -148 -223 -243 -345 -338 -436 -162 -155 -311 -204 -491 -161 -66 15 -309 130 -435 205 -132 79 -240 97 -349 59 -215 -74 -451 -354 -680 -808 -247 -489 -349 -821 -326 -1066 11 -115 41 -186 106 -257 58 -61 102 -88 209 -127 44 -16 147 -63 229 -103 176 -88 245 -144 294 -241 98 -191 78 -398 -81 -881 -113 -341 -210 -494 -343 -541 -27 -10 -59 -23 -71 -28 -31 -15 -161 21 -281 78 -53 26 -149 71 -212 101 -168 79 -296 169 -431 303 -175 173 -288 351 -370 581 -62 174 -108 400 -109 531 0 26 -5 50 -10 53 -13 8 -13 192 0 200 5 3 10 33 10 65 0 75 24 265 51 400 83 423 233 836 490 1350 495 990 1082 1589 1744 1779 238 68 453 82 695 44z"/>
 </g>

</svg>