<!DOCTYPE svg PUBLIC "-//W3C//DTD SVG 20010904//EN" "http://www.w3.org/TR/2001/REC-SVG-20010904/DTD/svg10.dtd">
<svg version="1.0" xmlns="http://www.w3.org/2000/svg" width="258px" height="258px" viewBox="0 0 2580 2580" preserveAspectRatio="xMidYMid meet">
<g id="layer1" fill="#b0b0b0" stroke="none">
 <path d="M797 2573 c271 -2 715 -2 985 0 271 1 50 2 -492 2 -542 0 -763 -1 -493 -2z"/>
 <path d="M258 2558 c9 -9 15 -9 24 0 9 9 7 12 -12 12 -19 0 -21 -3 -12 -12z"/>
 <path d="M2298 2558 c9 -9 15 -9 24 0 9 9 7 12 -12 12 -19 0 -21 -3 -12 -12z"/>
 <path d="M170 2540 c-8 -5 -12 -12 -8 -15 9 -9 48 4 48 16 0 12 -21 11 -40 -1z"/>
 <path d="M2370 2541 c0 -12 39 -25 48 -16 7 7 -17 25 -35 25 -7 0 -13 -4 -13 -9z"/>
 <path d="M115 2499 c-4 -6 -5 -13 -2 -16 7 -7 27 6 27 18 0 12 -17 12 -25 -2z"/>
 <path d="M2442 2499 c2 -7 10 -15 17 -17 8 -3 12 1 9 9 -2 7 -10 15 -17 17 -8 3 -12 -1 -9 -9z"/>
 <path d="M60 2441 c-16 -30 -12 -36 10 -16 21 19 26 35 10 35 -5 0 -14 -9 -20 -19z"/>
 <path d="M6 2309 c-8 -43 -6 -2028 3 -2059 5 -18 9 -21 15 -12 5 8 3 19 -3 25 -16 16 -16 2028 1 2045 8 8 9 15 1 23 -7 7 -12 1 -17 -22z"/>
 <path d="M2556 2332 c-5 -8 -3 -19 3 -25 16 -16 16 -2028 0 -2044 -6 -6 -8 -17 -3 -25 6 -9 10 -6 15 12 4 14 7 479 7 1035 0 556 -3 1021 -7 1035 -5 18 -9 21 -15 12z"/>
 <path d="M353 2283 c-22 -8 -14 -23 12 -23 16 0 25 6 25 15 0 15 -14 18 -37 8z"/>
 <path d="M2180 2275 c0 -8 7 -15 15 -15 8 0 15 7 15 15 0 8 -7 15 -15 15 -8 0 -15 -7 -15 -15z"/>
 <path d="M2240 2252 c0 -5 9 -17 20 -27 22 -20 26 -14 10 16 -11 19 -30 26 -30 11z"/>
 <path d="M2270 1640 c0 -482 2 -550 15 -550 13 0 15 68 15 550 0 482 -2 550 -15 550 -13 0 -15 -68 -15 -550z"/>
 <path d="M1160 2075 c0 -8 9 -15 20 -15 11 0 20 7 20 15 0 8 -9 15 -20 15 -11 0 -20 -7 -20 -15z"/>
 <path d="M1390 2075 c0 -8 7 -15 15 -15 8 0 15 7 15 15 0 8 -7 15 -15 15 -8 0 -15 -7 -15 -15z"/>
 <path d="M1110 2065 c0 -8 5 -15 10 -15 6 0 10 7 10 15 0 8 -4 15 -10 15 -5 0 -10 -7 -10 -15z"/>
 <path d="M1450 2065 c0 -8 7 -15 15 -15 8 0 15 7 15 15 0 8 -7 15 -15 15 -8 0 -15 -7 -15 -15z"/>
 <path d="M1070 2055 c0 -8 5 -15 10 -15 6 0 10 7 10 15 0 8 -4 15 -10 15 -5 0 -10 -7 -10 -15z"/>
 <path d="M1500 2055 c0 -8 5 -15 10 -15 6 0 10 7 10 15 0 8 -4 15 -10 15 -5 0 -10 -7 -10 -15z"/>
 <path d="M960 2020 c0 -5 7 -10 15 -10 8 0 15 5 15 10 0 6 -7 10 -15 10 -8 0 -15 -4 -15 -10z"/>
 <path d="M880 1980 c0 -5 7 -10 15 -10 8 0 15 5 15 10 0 6 -7 10 -15 10 -8 0 -15 -4 -15 -10z"/>
 <path d="M785 1919 c-4 -6 -5 -13 -2 -16 7 -7 27 6 27 18 0 12 -17 12 -25 -2z"/>
 <path d="M1800 1901 c0 -13 29 -35 37 -28 7 8 -15 37 -28 37 -5 0 -9 -4 -9 -9z"/>
 <path d="M705 1850 c-10 -11 -15 -23 -12 -27 8 -7 47 25 47 39 0 14 -16 9 -35 -12z"/>
 <path d="M1892 1809 c2 -7 10 -15 17 -17 8 -3 12 1 9 9 -2 7 -10 15 -17 17 -8 3 -12 -1 -9 -9z"/>
 <path d="M1190 1775 c0 -8 7 -15 15 -15 8 0 15 7 15 15 0 8 -7 15 -15 15 -8 0 -15 -7 -15 -15z"/>
 <path d="M1360 1775 c0 -8 7 -15 15 -15 8 0 15 7 15 15 0 8 -7 15 -15 15 -8 0 -15 -7 -15 -15z"/>
 <path d="M1150 1765 c0 -8 5 -15 10 -15 6 0 10 7 10 15 0 8 -4 15 -10 15 -5 0 -10 -7 -10 -15z"/>
 <path d="M1940 1754 c0 -11 42 -65 47 -60 6 6 -29 66 -39 66 -4 0 -8 -3 -8 -6z"/>
 <path d="M1053 1738 c-23 -11 -31 -28 -13 -28 16 0 60 23 60 32 0 11 -20 9 -47 -4z"/>
 <path d="M1622 1659 c2 -7 10 -15 17 -17 8 -3 12 1 9 9 -2 7 -10 15 -17 17 -8 3 -12 -1 -9 -9z"/>
 <path d="M1670 1613 c1 -13 51 -66 57 -60 7 7 -35 67 -48 67 -5 0 -9 -3 -9 -7z"/>
 <path d="M820 1500 c-6 -12 -9 -24 -7 -27 3 -2 11 5 17 17 6 12 9 24 7 27 -3 2 -11 -5 -17 -17z"/>
 <path d="M500 1490 c0 -5 7 -10 15 -10 8 0 15 5 15 10 0 6 -7 10 -15 10 -8 0 -15 -4 -15 -10z"/>
 <path d="M2060 1465 c0 -8 7 -15 15 -15 8 0 15 7 15 15 0 8 -7 15 -15 15 -8 0 -15 -7 -15 -15z"/>
 <path d="M490 1440 c0 -5 7 -10 15 -10 8 0 15 5 15 10 0 6 -7 10 -15 10 -8 0 -15 -4 -15 -10z"/>
 <path d="M2070 1400 c0 -11 7 -20 15 -20 8 0 15 9 15 20 0 11 -7 20 -15 20 -8 0 -15 -9 -15 -20z"/>
 <path d="M1780 1390 c0 -5 7 -10 15 -10 8 0 15 5 15 10 0 6 -7 10 -15 10 -8 0 -15 -4 -15 -10z"/>
 <path d="M770 1375 c0 -8 7 -15 15 -15 8 0 15 7 15 15 0 8 -7 15 -15 15 -8 0 -15 -7 -15 -15z"/>
 <path d="M481 1310 c0 -52 4 -70 14 -70 10 0 14 18 14 70 0 54 -3 70 -14 70 -11 0 -14 -16 -14 -70z"/>
 <path d="M1790 1340 c0 -11 7 -20 15 -20 8 0 15 9 15 20 0 11 -7 20 -15 20 -8 0 -15 -9 -15 -20z"/>
 <path d="M760 1285 c0 -8 7 -15 15 -15 8 0 15 7 15 15 0 8 -7 15 -15 15 -8 0 -15 -7 -15 -15z"/>
 <path d="M1790 1225 c0 -8 7 -15 15 -15 8 0 15 7 15 15 0 8 -7 15 -15 15 -8 0 -15 -7 -15 -15z"/>
 <path d="M2070 1215 c0 -8 7 -15 15 -15 8 0 15 7 15 15 0 8 -7 15 -15 15 -8 0 -15 -7 -15 -15z"/>
 <path d="M770 1195 c0 -8 7 -15 15 -15 8 0 15 7 15 15 0 8 -7 15 -15 15 -8 0 -15 -7 -15 -15z"/>
 <path d="M490 1175 c0 -8 7 -15 15 -15 8 0 15 7 15 15 0 8 -7 15 -15 15 -8 0 -15 -7 -15 -15z"/>
 <path d="M1780 1170 c0 -5 7 -10 15 -10 8 0 15 5 15 10 0 6 -7 10 -15 10 -8 0 -15 -4 -15 -10z"/>
 <path d="M2060 1155 c0 -8 7 -15 15 -15 8 0 15 7 15 15 0 8 -7 15 -15 15 -8 0 -15 -7 -15 -15z"/>
 <path d="M780 1150 c0 -5 7 -10 15 -10 8 0 15 5 15 10 0 6 -7 10 -15 10 -8 0 -15 -4 -15 -10z"/>
 <path d="M500 1130 c0 -5 7 -10 15 -10 8 0 15 5 15 10 0 6 -7 10 -15 10 -8 0 -15 -4 -15 -10z"/>
 <path d="M2050 1110 c0 -5 7 -10 15 -10 8 0 15 5 15 10 0 6 -7 10 -15 10 -8 0 -15 -4 -15 -10z"/>
 <path d="M872 979 c2 -7 10 -15 17 -17 8 -3 12 1 9 9 -2 7 -10 15 -17 17 -8 3 -12 -1 -9 -9z"/>
 <path d="M1655 940 c-10 -11 -15 -23 -12 -27 8 -7 47 25 47 39 0 14 -16 9 -35 -12z"/>
 <path d="M950 901 c0 -12 54 -51 69 -51 20 0 11 15 -24 38 -38 24 -45 26 -45 13z"/>
 <path d="M1510 840 c-8 -5 -12 -12 -8 -15 9 -9 48 4 48 16 0 12 -21 11 -40 -1z"/>
 <path d="M1160 795 c0 -8 5 -15 10 -15 6 0 10 7 10 15 0 8 -4 15 -10 15 -5 0 -10 -7 -10 -15z"/>
 <path d="M1400 795 c0 -8 5 -15 10 -15 6 0 10 7 10 15 0 8 -4 15 -10 15 -5 0 -10 -7 -10 -15z"/>
 <path d="M1850 795 c0 -13 26 -15 170 -15 144 0 170 2 170 15 0 13 -26 15 -170 15 -144 0 -170 -2 -170 -15z"/>
 <path d="M1220 785 c0 -8 7 -15 15 -15 8 0 15 7 15 15 0 8 -7 15 -15 15 -8 0 -15 -7 -15 -15z"/>
 <path d="M1330 785 c0 -8 9 -15 20 -15 11 0 20 7 20 15 0 8 -9 15 -20 15 -11 0 -20 -7 -20 -15z"/>
 <path d="M2211 783 c1 -12 69 -66 69 -55 0 16 -41 62 -56 62 -8 0 -14 -3 -13 -7z"/>
 <path d="M1762 728 c-16 -16 -15 -28 3 -28 8 0 15 9 15 20 0 23 -2 24 -18 8z"/>
 <path d="M1750 380 c0 -5 7 -10 15 -10 8 0 15 5 15 10 0 6 -7 10 -15 10 -8 0 -15 -4 -15 -10z"/>
 <path d="M1800 310 c0 -13 28 -25 38 -16 3 4 0 11 -8 16 -20 13 -30 12 -30 0z"/>
 <path d="M80 111 c0 -13 29 -35 37 -28 7 8 -15 37 -28 37 -5 0 -9 -4 -9 -9z"/>
 <path d="M2465 99 c-4 -6 -5 -13 -2 -16 7 -7 27 6 27 18 0 12 -17 12 -25 -2z"/>
 <path d="M248 8 c22 -9 2062 -9 2084 0 10 4 -459 7 -1042 7 -583 0 -1052 -3 -1042 -7z"/>
 </g>
<g id="layer2" fill="#ffffff" stroke="none">
 <path d="M1 2428 c1 -84 3 -145 6 -136 2 10 19 48 38 86 37 76 86 125 154 154 26 11 55 23 66 28 11 5 31 11 45 13 14 2 -50 5 -142 6 l-168 1 1 -152z"/>
 <path d="M2270 2573 c14 -2 34 -8 45 -12 141 -60 178 -92 225 -195 16 -33 31 -68 33 -76 3 -8 6 54 6 138 l1 152 -167 -1 c-93 -1 -157 -4 -143 -6z"/>
 <path d="M364 2279 c-16 -5 -41 -20 -55 -35 l-24 -26 0 -566 0 -567 114 -3 c63 -1 118 1 123 6 6 6 4 27 -3 53 -19 67 -17 271 4 349 62 231 211 407 432 511 134 63 341 88 496 59 69 -13 194 -62 273 -108 92 -54 214 -182 263 -278 72 -141 87 -201 88 -349 0 -71 -4 -156 -9 -188 l-8 -58 113 3 114 3 3 563 2 562 -34 38 -34 37 -914 2 c-518 1 -926 -2 -944 -8z"/>
 <path d="M1168 1774 c-92 -22 -176 -70 -249 -143 -130 -130 -176 -291 -134 -469 28 -118 96 -214 208 -293 214 -150 500 -120 681 71 75 80 111 148 132 254 28 135 -5 271 -93 384 -134 172 -340 246 -545 196z"/>
 <path d="M1805 778 c-46 -36 -55 -73 -55 -230 0 -174 8 -209 58 -243 36 -24 41 -25 220 -25 l184 0 39 39 39 39 0 182 0 182 -39 39 -39 39 -189 0 c-180 0 -192 -1 -218 -22z"/>
 <path d="M1 148 l-1 -148 143 0 142 0 -71 34 c-39 19 -87 49 -106 68 -29 29 -83 124 -101 178 -3 8 -6 -51 -6 -132z"/>
 <path d="M2570 278 c0 -26 -63 -138 -97 -173 -20 -21 -68 -52 -107 -71 l-71 -34 143 0 142 0 0 145 c0 80 -2 145 -5 145 -3 0 -5 -6 -5 -12z"/>
 </g>
<g id="layer3" fill="#666666" stroke="none">
 <path d="M240 2561 c-70 -14 -134 -62 -188 -140 l-37 -53 0 -1077 0 -1076 22 -40 c22 -41 86 -107 138 -141 28 -18 69 -19 1115 -19 1046 0 1087 1 1115 19 52 34 116 100 138 141 l22 40 0 1076 0 1077 -37 53 c-39 57 -80 93 -138 125 -34 18 -73 19 -1075 20 -572 1 -1056 -1 -1075 -5z m1989 -306 c16 -8 34 -28 40 -46 7 -22 11 -202 11 -570 l0 -539 -106 0 c-91 0 -105 2 -100 15 3 8 11 53 18 100 22 152 -15 341 -91 466 -210 346 -600 490 -980 363 -112 -38 -205 -97 -302 -193 -97 -97 -154 -186 -195 -306 -25 -72 -28 -94 -29 -220 0 -77 4 -159 8 -182 l9 -43 -106 0 -106 0 0 556 0 556 29 29 29 29 922 0 c791 0 925 -2 949 -15z m-788 -505 c69 -21 167 -75 213 -118 46 -43 94 -124 122 -209 81 -241 -55 -509 -305 -601 -235 -86 -514 15 -624 226 -47 89 -59 141 -59 242 1 134 40 229 136 328 58 60 133 107 215 133 79 25 220 25 302 -1z m774 -974 c18 -8 38 -23 44 -34 7 -13 11 -91 11 -202 l0 -182 -29 -29 -29 -29 -187 0 c-109 0 -194 4 -206 10 -41 23 -49 60 -49 235 0 98 4 174 11 186 5 11 25 29 42 39 28 18 51 20 195 20 118 0 172 -4 197 -14z"/>
 </g>

</svg>