<!DOCTYPE svg PUBLIC "-//W3C//DTD SVG 20010904//EN" "http://www.w3.org/TR/2001/REC-SVG-20010904/DTD/svg10.dtd">
<svg version="1.0" xmlns="http://www.w3.org/2000/svg" width="257px" height="361px" viewBox="0 0 2570 3610" preserveAspectRatio="xMidYMid meet">
<g id="layer1" fill="#666666" stroke="none">
 <path d="M2 2468 c1 -629 3 -1123 5 -1098 2 25 7 54 12 65 5 11 14 53 20 93 16 101 62 242 113 339 59 112 1112 1735 1117 1720 2 -6 255 -380 561 -832 307 -451 576 -856 598 -900 45 -90 84 -208 102 -305 6 -36 16 -74 20 -85 5 -11 11 -31 13 -45 2 -14 5 473 6 1083 l1 1107 -1285 0 -1285 0 2 -1142z"/>
 <path d="M1120 1935 c-219 -62 -399 -247 -450 -465 -19 -80 -17 -233 4 -305 63 -211 240 -386 447 -440 89 -24 270 -17 353 13 170 62 324 212 386 380 42 111 42 299 1 416 -60 171 -202 315 -379 383 -86 33 -273 42 -362 18z"/>
 <path d="M2 618 l-2 -618 603 2 c331 0 586 3 567 5 -19 2 -44 8 -55 12 -11 5 -49 15 -85 21 -229 42 -435 149 -617 324 -201 192 -333 429 -374 673 -6 37 -15 77 -20 88 -5 11 -10 40 -12 65 -2 25 -4 -233 -5 -572z"/>
 <path d="M2560 1146 c0 -19 -4 -38 -10 -41 -5 -3 -10 -17 -10 -29 0 -44 -49 -214 -88 -303 -123 -287 -392 -551 -673 -662 -92 -37 -256 -81 -298 -81 -15 0 -31 -4 -36 -9 -6 -5 -26 -11 -45 -14 -19 -2 236 -5 568 -5 l602 -2 0 590 c0 325 -2 590 -5 590 -3 0 -5 -15 -5 -34z"/>
 </g>
<g id="layer2" fill="#ffffff" stroke="none">
 <path d="M714 2780 c-297 -457 -558 -868 -582 -913 -70 -134 -102 -249 -119 -430 -13 -141 -13 -175 0 -310 18 -178 46 -276 119 -419 66 -130 146 -234 270 -354 213 -204 422 -307 692 -339 196 -23 364 -15 531 26 414 102 791 474 903 890 42 158 51 385 23 599 -13 97 -53 225 -103 325 -22 44 -291 449 -597 900 -307 451 -560 828 -564 838 -3 9 -13 17 -20 17 -8 0 -257 -374 -553 -830z m768 -883 c271 -105 415 -346 386 -646 -21 -220 -176 -414 -394 -493 -83 -30 -264 -37 -353 -13 -204 53 -365 212 -427 420 -21 72 -23 225 -4 305 50 214 215 384 430 445 89 24 276 15 362 -18z"/>
 </g>

</svg>