<!DOCTYPE svg PUBLIC "-//W3C//DTD SVG 20010904//EN" "http://www.w3.org/TR/2001/REC-SVG-20010904/DTD/svg10.dtd">
<svg version="1.0" xmlns="http://www.w3.org/2000/svg" width="170px" height="190px" viewBox="0 0 1700 1900" preserveAspectRatio="xMidYMid meet">
<g id="layer1" fill="#b3b3b3" stroke="none">
 <path d="M0 1879 c0 -14 5 -19 17 -17 26 5 29 38 4 38 -15 0 -21 -6 -21 -21z"/>
 <path d="M1000 1889 c0 -6 9 -22 20 -36 20 -25 20 -41 20 -903 0 -862 0 -878 -20 -903 -24 -30 -26 -47 -5 -47 8 0 15 5 15 11 0 6 9 22 20 36 20 25 20 41 20 903 0 862 0 878 -20 903 -11 14 -20 30 -20 36 0 6 -7 11 -15 11 -8 0 -15 -5 -15 -11z"/>
 <path d="M110 1824 c-37 -16 -56 -64 -25 -64 8 0 15 7 15 15 0 25 37 30 195 27 l150 -3 0 -55 0 -54 -172 0 c-166 0 -173 1 -173 20 0 11 -7 20 -15 20 -21 0 -19 -33 3 -53 16 -15 46 -17 206 -17 160 0 187 2 193 16 3 8 1 20 -6 27 -14 14 -14 49 1 82 7 16 8 29 2 35 -14 14 -342 17 -374 4z"/>
 <path d="M720 1830 l-165 -5 2 -25 c4 -45 5 -85 1 -110 l-3 -25 168 -3 c144 -2 167 0 167 13 0 13 -22 15 -148 15 l-148 0 -1 55 -1 55 136 0 c75 0 146 3 158 6 13 3 28 -1 38 -11 21 -21 22 -93 1 -101 -19 -8 -20 -34 -1 -34 23 0 46 41 46 83 0 29 -7 46 -29 68 -16 16 -35 28 -43 27 -7 -1 -87 -5 -178 -8z"/>
 <path d="M130 1585 c0 -8 9 -15 20 -15 11 0 20 7 20 15 0 8 -9 15 -20 15 -11 0 -20 -7 -20 -15z"/>
 <path d="M870 1586 c0 -9 12 -16 33 -18 l32 -3 0 -620 0 -620 -418 -3 c-276 -1 -417 1 -417 8 0 5 -7 10 -15 10 -20 0 -19 -13 3 -33 17 -15 62 -17 435 -17 l416 0 15 22 c14 20 16 97 16 634 l0 613 -26 20 c-31 24 -74 28 -74 7z"/>
 <path d="M82 1578 c-9 -9 -12 -158 -12 -610 0 -525 2 -598 15 -598 13 0 15 72 15 588 0 323 3 597 6 610 7 24 -5 29 -24 10z"/>
 <path d="M1345 1505 c-40 -39 -33 -66 41 -143 25 -26 58 -67 74 -92 16 -25 37 -56 47 -70 19 -27 51 -109 60 -152 3 -16 12 -28 20 -28 44 0 -58 211 -163 334 -74 88 -85 111 -62 134 33 33 82 -3 188 -142 46 -60 67 -98 108 -198 6 -16 18 -28 27 -28 19 0 20 36 1 43 -8 3 -17 19 -21 36 -3 16 -13 35 -21 42 -9 7 -26 34 -40 60 -29 58 -134 187 -172 211 -37 24 -58 22 -87 -7z"/>
 <path d="M1282 1314 c-13 -6 -42 -56 -42 -72 0 -5 17 -31 39 -58 42 -53 91 -144 91 -169 0 -8 7 -15 15 -15 8 0 15 7 15 15 0 24 -48 115 -84 160 -46 57 -47 60 -36 89 15 41 57 35 99 -15 51 -62 104 -176 109 -236 3 -39 9 -53 19 -53 13 0 15 10 10 53 -10 106 -133 300 -193 304 -16 1 -35 -1 -42 -3z"/>
 <path d="M1580 930 c0 -47 3 -60 15 -60 12 0 15 13 15 60 0 47 -3 60 -15 60 -12 0 -15 -13 -15 -60z"/>
 <path d="M1380 950 c0 -5 7 -10 15 -10 8 0 15 5 15 10 0 6 -7 10 -15 10 -8 0 -15 -4 -15 -10z"/>
 <path d="M1490 906 c0 -51 -24 -110 -76 -181 -50 -71 -74 -89 -104 -80 -40 13 -34 61 15 115 26 29 75 119 75 137 0 7 -7 13 -15 13 -8 0 -15 -7 -15 -16 0 -20 -46 -100 -82 -142 -43 -50 -46 -78 -12 -113 15 -16 37 -29 48 -29 23 0 114 92 135 136 7 16 17 36 22 44 40 66 53 150 24 150 -10 0 -15 -10 -15 -34z"/>
 <path d="M1570 831 c0 -30 -64 -161 -105 -216 -20 -27 -59 -71 -86 -96 -59 -55 -66 -94 -23 -128 45 -36 63 -28 159 72 67 69 100 114 130 173 22 43 43 81 48 82 4 2 7 13 7 24 0 38 -31 13 -54 -43 -32 -80 -106 -186 -170 -247 -55 -52 -82 -62 -104 -40 -24 24 -11 54 46 113 75 78 116 138 152 224 34 78 37 101 15 101 -8 0 -15 -8 -15 -19z"/>
 <path d="M81 181 c-18 -24 -19 -33 -10 -60 6 -17 20 -36 30 -41 12 -7 171 -11 421 -11 l403 0 23 26 c26 31 28 62 6 93 l-15 22 -419 0 -419 0 -20 -29z m857 -31 c5 -52 15 -51 -419 -51 -372 0 -405 1 -416 17 -14 19 -17 47 -6 57 4 4 194 6 422 5 l416 -3 3 -25z"/>
 <path d="M0 21 c0 -15 6 -21 21 -21 25 0 22 33 -4 38 -12 2 -17 -3 -17 -17z"/>
 </g>
<g id="layer2" fill="#939393" stroke="none">
 <path d="M13 1885 c-17 -18 -16 -35 0 -35 17 0 37 20 37 37 0 17 -22 16 -37 -2z"/>
 <path d="M990 1889 c0 -6 9 -22 20 -36 20 -25 20 -41 20 -903 0 -862 0 -878 -20 -903 -24 -30 -26 -47 -5 -47 8 0 15 5 15 11 0 6 9 22 20 36 20 25 20 41 20 903 0 862 0 878 -20 903 -11 14 -20 30 -20 36 0 6 -7 11 -15 11 -8 0 -15 -5 -15 -11z"/>
 <path d="M85 1815 c-21 -20 -25 -34 -25 -79 0 -89 -21 -85 459 -85 l412 0 25 24 c47 47 17 165 -42 165 -11 0 -2 -22 16 -40 12 -12 20 -33 20 -54 0 -68 7 -66 -201 -66 l-189 0 16 25 c8 13 13 33 10 45 -19 66 -34 60 138 60 132 0 156 2 156 15 0 13 -47 15 -360 15 -313 0 -360 -2 -360 -15 0 -13 24 -15 156 -15 145 0 156 -1 149 -17 -17 -41 -17 -74 1 -94 17 -19 16 -19 -177 -17 l-194 3 0 55 c0 47 3 56 23 65 12 5 22 15 22 22 0 21 -29 15 -55 -12z m453 -24 c21 -13 20 -71 0 -85 -40 -25 -77 43 -43 78 19 18 24 19 43 7z"/>
 <path d="M77 1582 c-15 -17 -17 -76 -17 -645 l0 -626 22 -15 c19 -14 78 -16 438 -16 l417 0 21 23 22 23 0 617 c0 604 0 617 -20 637 -11 11 -24 20 -30 20 -16 0 -12 -27 5 -34 13 -5 15 -83 15 -618 0 -337 -4 -619 -8 -626 -7 -10 -99 -12 -428 -10 l-419 3 -3 628 c-2 622 -2 627 18 627 11 0 20 7 20 15 0 21 -33 19 -53 -3z"/>
 <path d="M170 1585 c0 -13 46 -15 350 -15 304 0 350 2 350 15 0 13 -46 15 -350 15 -304 0 -350 -2 -350 -15z"/>
 <path d="M1350 1500 c-11 -11 -20 -28 -20 -38 0 -10 36 -61 80 -113 44 -52 80 -98 80 -103 0 -5 6 -17 13 -25 23 -27 77 -169 77 -201 0 -20 5 -30 15 -30 9 0 15 10 15 26 0 30 -55 172 -76 195 -8 8 -14 19 -14 23 0 11 -86 124 -127 167 -41 43 -43 82 -4 87 29 4 64 -28 135 -123 66 -89 103 -153 125 -218 20 -57 51 -78 51 -34 0 14 -7 27 -15 31 -8 3 -15 12 -15 19 0 42 -107 203 -198 300 -60 62 -88 71 -122 37z"/>
 <path d="M1278 1293 c-32 -37 -30 -58 11 -109 53 -67 91 -146 91 -189 0 -24 4 -35 15 -35 42 0 -2 131 -75 222 -44 55 -48 69 -25 92 16 16 20 36 7 36 -5 0 -16 -8 -24 -17z"/>
 <path d="M1330 1296 c0 -9 4 -16 10 -16 25 0 140 -206 140 -251 0 -11 7 -19 16 -19 13 0 15 7 11 29 -11 51 -65 154 -112 211 -49 59 -65 71 -65 46z"/>
 <path d="M1490 950 c0 -5 7 -10 15 -10 8 0 15 5 15 10 0 6 -7 10 -15 10 -8 0 -15 -4 -15 -10z"/>
 <path d="M1590 935 c0 -16 6 -25 15 -25 9 0 15 9 15 25 0 16 -6 25 -15 25 -9 0 -15 -9 -15 -25z"/>
 <path d="M1380 912 c0 -32 -41 -114 -81 -159 -37 -43 -44 -69 -25 -98 23 -34 53 -41 85 -18 35 27 85 96 121 168 33 66 38 95 15 95 -8 0 -15 -8 -15 -18 0 -30 -66 -155 -103 -194 -37 -41 -57 -47 -77 -23 -15 18 1 63 32 92 26 24 78 129 78 159 0 15 -6 24 -15 24 -10 0 -15 -10 -15 -28z"/>
 <path d="M1580 844 c0 -39 -64 -180 -106 -233 -20 -25 -59 -67 -85 -93 -54 -51 -63 -84 -29 -118 31 -31 57 -24 115 31 74 70 126 140 171 229 21 41 42 77 46 78 14 6 8 42 -7 42 -14 0 -45 -58 -45 -85 0 -24 -87 -150 -150 -217 -51 -55 -69 -68 -90 -66 -49 6 -38 41 39 125 39 42 71 81 71 87 0 5 9 19 19 30 23 24 81 165 81 195 0 12 -6 21 -15 21 -9 0 -15 -10 -15 -26z"/>
 <path d="M82 204 c-12 -8 -22 -22 -22 -30 0 -19 26 -18 34 1 5 13 61 15 425 15 l421 0 6 -26 c7 -28 -9 -74 -26 -74 -5 0 -10 -7 -10 -16 0 -11 5 -14 16 -10 9 3 17 6 20 6 9 0 34 61 34 83 0 13 -10 33 -23 45 -23 22 -26 22 -438 22 -359 0 -418 -2 -437 -16z"/>
 <path d="M60 125 c0 -20 45 -65 65 -65 23 0 18 27 -6 33 -11 3 -23 15 -26 26 -6 24 -33 29 -33 6z"/>
 <path d="M160 75 c0 -13 47 -15 360 -15 313 0 360 2 360 15 0 13 -47 15 -360 15 -313 0 -360 -2 -360 -15z"/>
 <path d="M0 39 c0 -14 25 -39 39 -39 15 0 14 23 -1 38 -15 15 -38 16 -38 1z"/>
 </g>
<g id="layer3" fill="#707070" stroke="none">
 <path d="M30 1885 c0 -8 -7 -15 -15 -15 -8 0 -15 -7 -15 -15 0 -21 23 -19 43 3 21 23 22 42 2 42 -8 0 -15 -7 -15 -15z"/>
 <path d="M980 1886 c0 -7 9 -25 20 -39 20 -25 20 -40 20 -897 0 -857 0 -872 -20 -897 -24 -30 -26 -53 -5 -53 8 0 15 5 15 11 0 6 9 22 20 36 20 25 20 41 20 903 0 862 0 878 -20 903 -11 14 -20 30 -20 36 0 6 -7 11 -15 11 -8 0 -15 -6 -15 -14z"/>
 <path d="M79 1821 c-24 -25 -29 -38 -29 -78 0 -32 7 -56 20 -73 l19 -25 431 0 432 0 20 25 c30 37 21 125 -16 157 l-27 23 -410 0 -411 0 -29 -29z m406 -26 c-30 -29 -32 -68 -5 -95 11 -11 20 -22 20 -25 0 -7 -385 -6 -404 1 -12 5 -16 20 -16 59 0 85 -1 85 230 85 l199 0 -24 -25z m459 3 c21 -29 20 -92 0 -112 -13 -13 -46 -16 -210 -16 -107 0 -194 3 -194 7 0 4 9 17 21 29 26 27 19 76 -14 99 -19 14 -2 15 180 15 197 0 202 -1 217 -22z m-396 -50 c2 -19 -2 -28 -17 -33 -27 -8 -41 1 -41 29 0 29 9 38 35 34 13 -2 21 -12 23 -30z"/>
 <path d="M70 1590 c-20 -20 -20 -33 -20 -642 l0 -623 23 -27 22 -28 417 -1 c430 -1 446 1 468 41 6 12 10 235 10 639 l0 620 -26 20 c-26 21 -37 21 -450 21 -411 0 -425 -1 -444 -20z m878 -22 c17 -17 17 -1239 0 -1256 -9 -9 -117 -12 -424 -12 -227 0 -419 3 -428 6 -14 6 -16 71 -16 633 0 345 3 631 7 634 3 4 196 7 428 7 314 0 424 -3 433 -12z"/>
 <path d="M1357 1492 c-23 -25 -21 -55 4 -78 74 -66 194 -255 215 -338 6 -25 34 -37 34 -16 0 21 -52 136 -76 167 -13 17 -24 35 -24 38 0 10 -93 125 -119 149 -30 27 -28 66 3 66 51 0 192 -192 245 -335 17 -44 33 -71 44 -73 12 -2 17 3 17 17 0 12 -4 21 -9 21 -5 0 -15 17 -21 38 -26 81 -114 214 -203 310 -53 56 -82 65 -110 34z"/>
 <path d="M1285 1285 c-14 -13 -25 -30 -25 -38 0 -8 22 -43 50 -77 27 -34 55 -80 62 -101 10 -35 38 -55 38 -28 0 11 -35 70 -77 132 -43 62 -48 76 -32 93 23 22 40 10 86 -59 68 -101 88 -160 88 -253 0 -90 -22 -151 -84 -234 -38 -51 -56 -64 -77 -56 -23 9 -16 40 20 82 29 34 76 113 76 129 0 3 -6 5 -13 5 -8 0 -24 -22 -37 -50 -13 -27 -32 -58 -42 -67 -32 -29 -51 -79 -39 -102 14 -25 45 -35 70 -21 30 15 87 94 124 169 29 59 32 74 31 151 -1 70 -6 95 -28 145 -47 101 -128 205 -161 205 -3 0 -17 -11 -30 -25z"/>
 <path d="M1590 995 c0 -24 5 -35 15 -35 10 0 15 11 15 35 0 24 -5 35 -15 35 -10 0 -15 -11 -15 -35z"/>
 <path d="M1390 955 c0 -42 3 -55 15 -55 12 0 15 13 15 55 0 42 -3 55 -15 55 -12 0 -15 -13 -15 -55z"/>
 <path d="M1590 875 c0 -24 5 -35 15 -35 10 0 15 11 15 35 0 24 -5 35 -15 35 -10 0 -15 -11 -15 -35z"/>
 <path d="M1563 761 c-13 -32 -23 -63 -23 -68 0 -5 -9 -18 -20 -28 -11 -10 -20 -23 -20 -29 0 -6 -34 -48 -75 -93 -41 -45 -75 -90 -75 -101 0 -24 30 -52 57 -52 24 0 152 130 178 180 10 19 28 49 41 65 12 17 29 50 38 75 8 25 20 46 26 48 5 2 10 15 10 29 0 45 -32 23 -51 -37 -38 -114 -78 -178 -173 -277 -32 -34 -59 -53 -73 -53 -36 0 -29 40 13 81 54 51 111 131 155 217 41 81 47 102 27 102 -7 0 -23 -27 -35 -59z"/>
 <path d="M488 233 l-397 -3 -20 -29 c-30 -42 -27 -86 8 -122 l29 -29 410 0 c397 0 410 1 435 20 31 25 45 81 28 116 -10 23 -69 57 -88 52 -4 -2 -187 -4 -405 -5z m460 -45 c17 -17 15 -59 -4 -86 l-15 -22 -409 0 c-457 0 -440 -3 -440 70 0 21 6 41 13 43 6 3 199 6 427 6 311 1 419 -2 428 -11z"/>
 <path d="M0 45 c0 -8 7 -15 15 -15 8 0 15 -7 15 -15 0 -8 7 -15 15 -15 21 0 19 23 -3 43 -23 21 -42 22 -42 2z"/>
 </g>
<g id="layer4" fill="#4e4e4e" stroke="none">
 <path d="M40 1884 c0 -9 -9 -18 -20 -21 -20 -5 -28 -33 -10 -33 18 0 70 43 70 57 0 7 -9 13 -20 13 -12 0 -20 -7 -20 -16z"/>
 <path d="M970 1886 c0 -7 9 -25 20 -39 11 -14 20 -40 20 -59 l0 -33 -19 40 c-10 23 -29 46 -45 53 -34 15 -810 17 -851 2 -52 -20 -74 -134 -34 -184 22 -29 49 -35 49 -11 0 8 -6 15 -14 15 -33 0 -37 109 -6 140 19 19 33 20 428 20 317 0 412 -3 426 -13 33 -24 34 -147 1 -147 -8 0 -15 -7 -15 -15 0 -43 66 11 73 60 2 17 4 -283 3 -665 l-1 -695 -5 615 -5 615 -35 18 c-32 16 -70 17 -458 15 l-424 -3 -19 -24 c-18 -22 -19 -48 -19 -643 0 -656 0 -660 46 -686 14 -8 13 -12 -10 -35 -14 -14 -28 -38 -32 -53 -10 -39 15 -106 46 -121 19 -10 124 -13 430 -12 444 0 439 -1 471 60 l18 34 1 -28 c0 -16 -9 -40 -20 -54 -24 -30 -26 -53 -5 -53 8 0 15 6 15 14 0 7 9 25 20 39 20 25 20 40 20 897 0 857 0 872 -20 897 -11 14 -20 32 -20 39 0 8 -7 14 -15 14 -8 0 -15 -6 -15 -14z m-19 -306 c18 -10 19 -28 19 -635 0 -554 -2 -625 -16 -639 -8 -9 -23 -16 -32 -16 -9 -1 -199 -1 -422 0 -366 0 -406 2 -418 17 -17 24 -18 1253 0 1271 16 16 839 17 869 2z m59 -1327 l0 -88 -19 32 c-11 17 -29 34 -40 38 -28 9 -26 17 9 37 16 9 32 28 36 42 3 14 8 26 10 26 2 0 4 -39 4 -87z m-82 -44 c17 -6 34 -20 38 -31 9 -31 -5 -87 -26 -98 -12 -6 -170 -10 -424 -10 -393 0 -407 1 -426 20 -23 23 -27 77 -7 103 11 15 50 17 407 20 217 1 398 3 401 5 3 1 20 -3 37 -9z"/>
 <path d="M487 1782 c-23 -25 -21 -55 4 -78 19 -17 23 -17 47 -3 33 18 40 54 16 80 -22 24 -46 24 -67 1z m51 -34 c-5 -34 -38 -37 -38 -4 0 20 5 26 21 26 15 0 20 -5 17 -22z"/>
 <path d="M430 1645 c0 -12 17 -15 90 -15 73 0 90 3 90 15 0 12 -17 15 -90 15 -73 0 -90 -3 -90 -15z"/>
 <path d="M880 1645 c0 -8 7 -15 15 -15 8 0 15 7 15 15 0 8 -7 15 -15 15 -8 0 -15 -7 -15 -15z"/>
 <path d="M1361 1487 c-21 -21 -11 -50 41 -106 90 -99 155 -209 181 -308 7 -25 18 -43 26 -43 42 0 -54 198 -156 322 -72 86 -84 110 -62 124 12 7 139 -123 139 -142 0 -6 10 -19 21 -30 26 -23 60 -94 92 -189 15 -45 30 -71 40 -73 21 -4 24 43 4 51 -7 3 -19 24 -26 47 -7 23 -21 56 -31 73 -11 18 -27 46 -36 62 -27 49 -110 158 -146 191 -35 32 -68 40 -87 21z"/>
 <path d="M1290 1280 c-26 -26 -25 -42 4 -77 38 -45 96 -149 96 -172 0 -12 6 -21 15 -21 8 0 15 8 15 18 0 23 -45 107 -86 161 -38 49 -42 69 -18 78 12 4 26 -5 45 -28 16 -19 29 -38 29 -43 0 -5 7 -17 16 -27 9 -10 27 -49 40 -86 33 -93 32 -174 -2 -256 -49 -116 -134 -201 -134 -133 0 13 7 30 16 37 26 21 94 131 94 151 0 35 -26 17 -39 -27 -7 -25 -33 -70 -57 -99 -49 -59 -53 -75 -24 -101 27 -25 61 -9 94 44 14 22 30 42 35 45 5 4 22 32 37 64 24 49 28 70 29 147 0 85 -2 94 -38 164 -51 100 -114 181 -139 181 -4 0 -17 -9 -28 -20z"/>
 <path d="M1600 935 c0 -60 3 -75 15 -75 12 0 15 15 15 75 0 60 -3 75 -15 75 -12 0 -15 -15 -15 -75z"/>
 <path d="M1400 955 c0 -24 5 -35 15 -35 10 0 15 11 15 35 0 24 -5 35 -15 35 -10 0 -15 -11 -15 -35z"/>
 <path d="M1590 823 c-1 -59 -81 -200 -166 -292 -59 -64 -72 -93 -51 -118 20 -27 53 -13 113 50 93 96 147 180 178 275 10 28 22 52 27 52 5 0 9 12 9 26 0 18 -5 25 -16 22 -10 -2 -25 -30 -40 -75 -34 -108 -89 -197 -173 -285 -43 -46 -73 -59 -86 -38 -3 5 21 39 55 75 61 65 140 178 140 199 0 7 9 29 20 51 24 47 26 75 5 75 -8 0 -15 -8 -15 -17z"/>
 <path d="M0 55 c0 -8 7 -15 16 -15 9 0 18 -9 21 -20 6 -23 43 -28 43 -6 0 17 -46 56 -66 56 -8 0 -14 -7 -14 -15z"/>
 </g>
<g id="layer5" fill="#313131" stroke="none">
 <path d="M47 1875 c-10 -14 -24 -25 -32 -25 -8 0 -15 -9 -15 -20 0 -22 20 -26 38 -8 9 9 9 2 1 -27 -21 -76 6 -165 50 -165 10 0 7 -5 -9 -13 -50 -25 -50 -19 -50 -677 0 -596 1 -616 20 -652 l20 -38 -22 -41 c-19 -36 -20 -48 -11 -91 7 -33 6 -45 -1 -38 -17 17 -36 11 -36 -10 0 -11 6 -20 14 -20 8 0 23 -11 34 -25 23 -29 57 -34 50 -7 -5 16 20 17 416 17 232 0 430 4 441 9 16 7 18 7 8 -5 -19 -20 -16 -39 7 -39 11 0 20 6 20 14 0 7 9 25 20 39 20 25 20 40 20 897 0 857 0 872 -20 897 -11 14 -20 32 -20 39 0 8 -9 14 -20 14 -22 0 -26 -20 -8 -38 15 -15 3 -16 -23 -2 -27 15 -805 15 -845 0 -23 -9 -27 -9 -16 1 6 7 12 19 12 26 0 21 -24 14 -43 -12z m895 -46 c42 -23 57 -131 21 -160 -10 -9 -125 -12 -445 -12 -404 1 -433 2 -445 19 -26 36 -9 148 25 157 39 10 824 7 844 -4z m58 -203 c0 -23 -2 -24 -30 -13 l-30 11 23 13 c32 18 37 16 37 -11z m-52 -37 l32 -11 2 -616 c2 -340 -1 -629 -5 -643 -15 -49 -31 -50 -464 -49 -222 0 -409 3 -417 6 -34 13 -36 47 -36 672 0 339 4 622 8 628 4 6 14 14 22 17 29 11 826 7 858 -4z m52 -1341 c0 -30 -1 -31 -17 -16 -13 14 -14 20 -3 32 18 22 20 20 20 -16z m-66 -25 c45 -21 63 -62 46 -103 -25 -61 -16 -60 -455 -60 -220 0 -410 3 -422 6 -27 7 -49 69 -39 106 14 55 -6 53 428 58 222 3 404 6 405 8 1 1 18 -5 37 -15z"/>
 <path d="M493 1778 c-15 -20 -13 -55 3 -69 22 -18 64 4 64 34 0 41 -45 64 -67 35z m37 -33 c0 -8 -4 -15 -9 -15 -13 0 -22 16 -14 24 11 11 23 6 23 -9z"/>
 <path d="M1367 1483 c-13 -22 4 -55 63 -127 102 -123 170 -252 170 -323 0 -15 6 -23 16 -23 25 0 12 76 -24 140 -5 8 -20 37 -33 64 -24 50 -75 119 -142 194 -28 31 -36 47 -28 55 14 14 30 0 104 -97 97 -126 122 -178 173 -363 2 -7 10 -13 19 -13 11 0 15 10 15 35 0 19 -4 35 -9 35 -5 0 -19 29 -31 64 -34 105 -89 193 -186 304 -39 43 -62 62 -79 62 -13 0 -26 -3 -28 -7z"/>
 <path d="M1297 1272 c-23 -25 -22 -32 17 -83 47 -62 86 -139 86 -171 0 -18 5 -28 15 -28 39 0 4 100 -71 201 -33 46 -42 69 -26 69 35 0 142 -195 142 -257 0 -14 6 -23 15 -23 45 0 -35 191 -123 293 -19 22 -35 22 -55 -1z"/>
 <path d="M1610 935 c0 -42 3 -55 15 -55 12 0 15 13 15 55 0 42 -3 55 -15 55 -12 0 -15 -13 -15 -55z"/>
 <path d="M1400 893 c0 -30 -39 -101 -82 -151 -40 -46 -33 -92 13 -92 25 0 102 103 133 178 30 70 32 92 11 92 -8 0 -15 -7 -15 -15 0 -51 -98 -224 -127 -225 -21 0 -15 28 11 52 31 30 86 134 86 164 0 15 -6 24 -15 24 -10 0 -15 -10 -15 -27z"/>
 <path d="M1666 868 c-2 -7 -13 -45 -25 -84 -11 -39 -21 -76 -21 -83 0 -7 -9 -25 -20 -39 -12 -15 -37 -52 -57 -82 -59 -92 -134 -163 -148 -141 -3 6 26 45 65 87 38 42 70 82 70 87 0 6 8 20 19 31 26 28 81 158 81 190 0 16 -6 26 -15 26 -9 0 -15 -10 -15 -26 0 -36 -62 -176 -101 -227 -18 -23 -55 -65 -82 -93 -55 -58 -62 -98 -17 -101 63 -3 212 194 267 355 10 28 21 52 25 52 5 0 8 14 8 30 0 30 -27 44 -34 18z"/>
 </g>
<g id="layer6" fill="#d3d3d3" stroke="none">
 <path d="M1010 1889 c0 -6 9 -22 20 -36 20 -25 20 -41 20 -903 0 -862 0 -878 -20 -903 -25 -31 -25 -47 -2 -47 9 0 25 16 35 36 16 32 17 97 17 914 0 817 -1 882 -17 914 -17 33 -53 50 -53 25z"/>
 <path d="M116 1815 c-29 -15 -47 -55 -40 -90 12 -56 12 -56 208 -53 l181 3 0 63 c0 35 -4 67 -10 72 -15 12 -315 17 -339 5z m312 -73 l3 -43 -158 3 -158 3 -3 28 c-6 54 6 58 167 55 l146 -3 3 -43z"/>
 <path d="M730 1820 l-155 -5 0 -70 0 -70 165 -5 c195 -6 213 -1 218 68 3 34 -2 47 -22 67 -14 14 -31 24 -38 23 -7 -1 -83 -5 -168 -8z m193 -49 c2 -10 2 -31 0 -45 l-5 -26 -154 0 -154 0 0 38 c0 21 3 42 7 45 3 4 73 7 154 7 136 0 147 -1 152 -19z"/>
 <path d="M97 1578 c-15 -12 -17 -65 -17 -631 -1 -462 2 -622 11 -633 10 -12 79 -14 424 -14 386 0 413 1 428 18 15 17 17 75 17 629 0 578 -1 611 -18 626 -17 15 -61 17 -423 17 -309 0 -409 -3 -422 -12z m825 -613 c1 -327 2 -603 2 -612 1 -17 -26 -18 -404 -21 l-405 -2 0 607 c0 394 4 611 10 615 6 4 187 8 403 8 l392 0 2 -595z"/>
 <path d="M1330 1513 c-34 -43 -23 -98 28 -140 43 -35 105 -116 116 -150 4 -11 15 -28 26 -38 11 -10 20 -26 20 -36 0 -9 11 -41 25 -71 21 -44 25 -68 25 -143 -1 -75 -5 -98 -25 -140 -14 -27 -25 -55 -25 -62 0 -12 -28 -58 -77 -127 -16 -21 -49 -56 -75 -78 -44 -36 -48 -44 -48 -84 0 -56 25 -84 78 -84 34 0 45 8 129 96 51 52 95 104 99 116 6 19 43 80 64 105 16 19 12 63 -5 63 -9 0 -18 -8 -21 -17 -22 -70 -88 -174 -152 -244 -77 -82 -106 -98 -141 -79 -36 19 -28 65 20 108 60 54 126 146 167 232 34 72 36 79 36 190 1 103 -2 122 -27 182 -34 84 -56 120 -132 214 -33 41 -68 86 -79 99 -38 48 5 100 62 75 41 -18 186 -203 219 -280 3 -8 12 -30 19 -47 16 -40 44 -44 44 -8 0 14 -4 25 -8 25 -4 0 -13 12 -19 28 -36 81 -189 282 -236 309 -39 22 -83 16 -107 -14z"/>
 <path d="M1293 1333 c-33 -6 -63 -50 -63 -90 0 -28 9 -44 44 -80 24 -24 47 -57 51 -71 4 -15 13 -34 21 -43 9 -10 18 -42 21 -72 5 -48 2 -63 -26 -120 -17 -35 -41 -73 -52 -83 -30 -27 -61 -92 -54 -113 3 -10 24 -31 46 -46 33 -24 43 -26 63 -17 36 16 105 101 148 183 37 71 38 75 38 178 0 95 -3 110 -25 146 -13 22 -25 48 -25 57 0 14 -71 109 -114 154 -14 15 -45 22 -73 17z m100 -92 c25 -32 59 -91 76 -129 27 -61 31 -82 31 -159 0 -82 -3 -94 -35 -158 -70 -136 -134 -190 -177 -147 -26 25 -19 58 20 104 16 18 41 56 58 83 24 43 29 60 29 120 -1 79 -27 141 -96 229 -44 54 -46 62 -23 94 28 41 65 29 117 -37z"/>
 <path d="M87 182 c-23 -25 -21 -46 6 -77 l22 -26 405 0 c403 0 405 0 423 22 22 28 22 62 -1 82 -17 15 -61 17 -429 17 -384 0 -411 -1 -426 -18z m843 -26 c0 -48 13 -46 -400 -46 -214 0 -395 3 -404 6 -9 3 -16 17 -16 30 l0 24 410 0 c347 0 410 -2 410 -14z"/>
 </g>
<g id="layer7" fill="#141414" stroke="none">
 <path d="M70 1887 c0 -16 -42 -57 -58 -57 -9 0 -12 -208 -12 -880 0 -747 2 -880 14 -880 8 0 28 -16 45 -35 l30 -35 438 0 438 0 14 31 c17 38 9 46 -32 31 -49 -17 -822 -17 -857 1 -39 19 -50 92 -22 146 l22 41 -20 38 c-20 38 -20 55 -18 665 2 497 6 629 16 639 10 10 104 13 450 12 240 -1 451 -3 467 -5 27 -4 30 -1 33 25 5 43 -9 50 -62 32 -40 -14 -106 -16 -439 -15 -216 1 -405 4 -422 8 -24 5 -32 13 -39 43 -15 59 3 130 36 146 38 18 803 19 853 1 43 -16 51 -9 34 30 l-14 31 -447 0 c-365 0 -448 -2 -448 -13z"/>
 <path d="M497 1774 c-13 -13 -7 -55 8 -60 21 -9 47 15 43 40 -3 21 -37 34 -51 20z"/>
 <path d="M1382 1478 c-17 -17 -15 -43 5 -59 41 -34 137 -169 174 -246 109 -224 61 -459 -133 -659 -52 -53 -60 -85 -24 -92 23 -5 101 71 152 147 70 106 81 126 105 206 13 44 27 81 31 83 5 2 8 37 8 77 0 40 -3 75 -8 77 -4 2 -18 39 -32 83 -37 121 -111 243 -219 358 -39 41 -42 42 -59 25z"/>
 <path d="M1302 1268 c-18 -18 -15 -26 22 -77 72 -98 86 -136 86 -231 0 -78 -3 -93 -30 -143 -16 -30 -41 -67 -55 -81 -31 -31 -31 -69 1 -74 27 -4 96 86 132 172 54 129 16 286 -102 414 -33 36 -37 37 -54 20z"/>
 <path d="M965 270 c-18 -20 -18 -21 2 -42 30 -29 55 -18 51 24 -4 40 -27 47 -53 18z"/>
 </g>
<g id="layer8" fill="#fefefe" stroke="none">
 <path d="M1030 1888 c0 -7 7 -22 15 -32 22 -30 22 -1782 0 -1812 -33 -44 -33 -44 320 -44 l335 0 0 350 c0 299 -2 350 -15 350 -8 0 -23 -19 -35 -42 -45 -93 -68 -125 -156 -215 -51 -53 -66 -63 -95 -63 -45 0 -59 15 -59 62 0 33 8 45 69 107 38 38 79 87 90 109 11 22 25 43 31 47 5 3 10 14 10 23 0 9 11 40 25 67 20 42 24 65 25 140 0 75 -4 99 -25 143 -14 30 -25 62 -25 72 0 11 -11 31 -25 46 -14 15 -25 31 -25 36 0 15 -76 112 -114 146 -42 36 -56 85 -36 122 10 19 18 22 56 17 25 -2 46 -6 47 -8 2 -2 28 -33 59 -69 72 -84 144 -196 162 -252 3 -10 12 -18 21 -18 13 0 15 44 15 365 l0 365 -335 0 c-262 0 -335 -3 -335 -12z m347 -607 c13 -14 30 -38 38 -53 9 -16 20 -28 25 -28 5 0 13 -12 16 -27 4 -16 17 -46 30 -69 21 -36 24 -54 24 -145 0 -100 -1 -107 -37 -178 -41 -79 -119 -171 -146 -171 -9 0 -31 13 -49 29 l-32 29 18 40 c10 23 29 51 42 63 13 12 38 51 55 87 28 56 31 71 26 119 -3 30 -12 62 -21 72 -8 9 -17 28 -21 42 -3 14 -26 48 -51 74 -32 36 -44 57 -44 80 0 75 73 96 127 36z"/>
 <path d="M110 1790 c-25 -25 -26 -72 -2 -93 16 -14 43 -17 168 -17 103 0 154 4 162 12 7 7 12 31 12 55 0 32 -5 45 -19 53 -11 5 -83 10 -160 10 -128 0 -143 -2 -161 -20z"/>
 <path d="M608 1799 c-21 -12 -25 -88 -6 -107 8 -8 59 -12 164 -12 168 0 175 2 177 64 2 62 -8 66 -172 66 -80 0 -154 -5 -163 -11z"/>
 <path d="M116 1567 c-17 -12 -18 -50 -17 -625 0 -337 3 -617 6 -622 8 -14 822 -13 830 0 12 19 5 1233 -7 1247 -15 19 -786 19 -812 0z"/>
 <path d="M102 178 c-20 -20 -14 -56 11 -73 21 -13 77 -15 418 -13 l393 3 16 27 c11 21 12 32 4 45 -10 17 -42 18 -420 21 -310 2 -413 -1 -422 -10z"/>
 </g>

</svg>