<!DOCTYPE svg PUBLIC "-//W3C//DTD SVG 20010904//EN" "http://www.w3.org/TR/2001/REC-SVG-20010904/DTD/svg10.dtd">
<svg version="1.0" xmlns="http://www.w3.org/2000/svg" width="123px" height="153px" viewBox="0 0 1230 1530" preserveAspectRatio="xMidYMid meet">
<g id="layer1" fill="#8b8b8b" stroke="none">
 <path d="M193 1523 c104 -2 270 -2 370 0 100 1 16 2 -188 2 -203 0 -285 -1 -182 -2z"/>
 <path d="M765 1513 c6 -5 39 -15 75 -22 148 -29 275 -121 331 -239 17 -37 35 -75 40 -84 12 -23 12 -193 0 -216 -5 -9 -21 -43 -36 -75 -33 -70 -111 -133 -199 -161 -31 -10 -56 -24 -56 -31 0 -7 20 -25 44 -39 25 -14 58 -43 75 -63 32 -39 71 -129 71 -163 0 -11 7 -20 15 -20 20 0 19 30 -5 91 -25 68 -66 126 -112 159 l-38 27 64 32 c75 37 159 121 176 177 19 60 24 236 10 307 -33 163 -206 305 -390 322 -46 4 -71 3 -65 -2z"/>
 <path d="M387 1243 c-18 -18 4 -21 146 -25 135 -3 157 -6 195 -26 46 -24 82 -73 82 -109 0 -14 6 -23 15 -23 37 0 -3 103 -55 140 -53 38 -114 50 -250 50 -70 0 -130 -3 -133 -7z"/>
 <path d="M810 1014 c0 -14 -8 -39 -17 -55 -18 -29 -84 -69 -116 -69 -9 0 -17 -7 -17 -15 0 -8 8 -15 18 -15 27 1 95 35 119 61 39 43 57 119 28 119 -9 0 -15 -10 -15 -26z"/>
 <path d="M387 603 c-19 -18 2 -23 105 -23 136 0 189 -19 210 -76 13 -37 38 -46 38 -15 0 29 -49 81 -95 102 -31 14 -65 19 -146 19 -58 0 -109 -3 -112 -7z"/>
 <path d="M700 370 c-13 -31 -54 -60 -85 -60 -8 0 -15 -7 -15 -15 0 -34 71 -5 114 45 14 18 26 38 26 46 0 26 -27 15 -40 -16z"/>
 <path d="M2 183 c-2 -169 -1 -183 16 -183 12 0 13 3 5 8 -9 6 -13 58 -16 182 l-3 175 -2 -182z"/>
 <path d="M1103 261 c-25 -106 -92 -171 -222 -214 -91 -31 -101 -41 -31 -32 143 17 261 124 285 258 11 59 -18 48 -32 -12z"/>
 <path d="M618 3 c34 -2 88 -2 120 0 31 2 3 3 -63 3 -66 0 -92 -1 -57 -3z"/>
 </g>
<g id="layer2" fill="#666666" stroke="none">
 <path d="M5 935 c0 -330 1 -464 2 -297 2 167 2 437 0 600 -1 163 -2 27 -2 -303z"/>
 <path d="M760 1523 c24 -3 49 -8 55 -12 5 -5 28 -12 50 -15 70 -13 185 -75 240 -130 48 -48 91 -123 118 -206 3 -8 6 72 6 178 l1 192 -257 -2 c-142 -1 -238 -3 -213 -5z"/>
 <path d="M393 1229 c-18 -18 -18 -350 -1 -367 26 -26 274 -5 344 29 63 30 95 82 96 151 1 81 -32 132 -112 174 -45 24 -307 34 -327 13z"/>
 <path d="M1220 957 c0 -31 -61 -136 -100 -171 -43 -39 -132 -86 -162 -86 -31 0 -19 -24 26 -53 114 -72 168 -257 120 -416 -25 -86 -107 -161 -209 -191 -22 -6 -49 -15 -60 -20 -11 -5 -31 -11 -45 -13 -14 -2 80 -5 208 -6 l232 -1 0 485 c0 267 -2 485 -5 485 -3 0 -5 -6 -5 -13z"/>
 <path d="M392 588 c-18 -18 -17 -292 2 -307 22 -18 227 2 268 26 39 23 78 86 78 128 0 53 -40 116 -89 142 -38 20 -59 23 -146 23 -65 0 -105 -4 -113 -12z"/>
 </g>
<g id="layer3" fill="#ffffff" stroke="none">
 <path d="M12 763 l3 -758 225 -3 c317 -4 612 11 673 34 187 72 270 263 197 458 -23 60 -83 134 -136 167 l-36 22 53 18 c70 25 157 93 194 154 l30 48 0 156 c0 154 0 157 -29 209 -40 71 -140 164 -220 202 -92 43 -160 49 -584 50 l-372 0 2 -757z m721 438 c60 -29 87 -77 87 -153 0 -74 -24 -118 -80 -145 -37 -18 -71 -23 -192 -29 l-148 -6 0 182 0 182 143 -4 c125 -3 148 -6 190 -27z m-86 -630 c57 -26 74 -56 74 -131 1 -111 -32 -134 -203 -143 l-118 -6 0 149 0 150 103 0 c78 0 112 -5 144 -19z"/>
 </g>

</svg>